<?xml version="1.0" encoding="utf-8"?>
<!-- Generator: Adobe Illustrator 25.0.0, SVG Export Plug-In . SVG Version: 6.00 Build 0)  -->
<svg version="1.1" id="Warstwa_1" xmlns="http://www.w3.org/2000/svg" xmlns:xlink="http://www.w3.org/1999/xlink" x="0px" y="0px"
	 viewBox="0 0 175.6 50" style="enable-background:new 0 0 175.6 50;" xml:space="preserve">
<style type="text/css">
	.st0{fill:#B9D052;}
</style>
<g>
	<path class="st0" d="M27.2,23.7l6.6-20.1H40l6.5,20.1h-3.6L41.4,19h-9l-1.5,4.7H27.2z M33.3,16.1h7.2L37.1,5.5h-0.5L33.3,16.1z"/>
	<path class="st0" d="M57.9,24.1c-2.8,0-5-0.7-6.6-2.1c-1.6-1.4-2.5-3.4-2.5-6v-4.7c0-2.6,0.8-4.6,2.5-6c1.6-1.4,3.9-2.1,6.6-2.1
		c2.8,0,4.9,0.7,6.4,2c1.5,1.3,2.2,3.2,2.2,5.5v0.2H63v-0.3c0-1.4-0.4-2.5-1.3-3.3C60.9,6.4,59.6,6,57.9,6c-1.7,0-3.1,0.5-4.1,1.4
		c-1,0.9-1.5,2.2-1.5,3.9v4.8c0,1.6,0.5,2.9,1.5,3.8c1,0.9,2.3,1.4,4.1,1.4c1.7,0,3-0.4,3.8-1.3c0.8-0.9,1.3-2,1.3-3.3v-0.5h3.5v0.4
		c0,2.3-0.7,4.1-2.2,5.5C62.8,23.4,60.6,24.1,57.9,24.1z"/>
	<path class="st0" d="M70.4,23.7V3.6H74v20.1H70.4z"/>
	<path class="st0" d="M78,23.7V3.6h14.4v2.8H81.6v5.8h10V15h-10v5.9h11.1v2.8H78z"/>
	<path class="st0" d="M102.3,24.1c-2.3,0-4.1-0.6-5.5-1.7c-1.4-1.1-2-2.7-2-4.8V16h3.5v1.7c0,1.1,0.3,1.9,1,2.6c0.7,0.6,1.6,1,2.9,1
		c1.2,0,2.1-0.3,2.7-0.9s0.9-1.5,0.9-2.6V6.4h-4V3.6h10.1v2.8h-2.6v11.3c0,2.1-0.6,3.7-1.9,4.8C106.3,23.6,104.5,24.1,102.3,24.1z"
		/>
	<path class="st0" d="M39.2,46.4V26.1h9.7c1.4,0,2.7,0.2,3.8,0.7c1.1,0.4,1.9,1.1,2.5,1.9c0.6,0.8,0.9,1.8,0.9,2.9v0.3
		c0,1.3-0.3,2.3-1,3.1c-0.7,0.8-1.5,1.3-2.5,1.6V37c0.8,0,1.5,0.3,2,0.7c0.5,0.5,0.8,1.1,0.8,2v6.7h-3.6v-6.3c0-0.5-0.2-0.9-0.5-1.2
		c-0.3-0.3-0.8-0.5-1.5-0.5h-7v8H39.2z M42.8,35.6h5.7c1.3,0,2.3-0.3,3-0.9c0.7-0.6,1.1-1.3,1.1-2.3v-0.2c0-1-0.3-1.8-1-2.3
		c-0.7-0.6-1.7-0.9-3-0.9h-5.7V35.6z"/>
	<path class="st0" d="M59.3,46.4v-4.1l12.2-13v-0.4H59.6v-2.8h15.5v4.1l-12.2,13v0.4h12.3v2.8H59.3z"/>
	<path class="st0" d="M79.1,46.4V26.1h14.6V29h-11v5.8h10.1v2.8H82.7v5.9h11.2v2.8H79.1z"/>
	<path class="st0" d="M105.5,46.8c-1.7,0-3.3-0.3-4.6-0.8c-1.3-0.5-2.4-1.3-3.2-2.4c-0.8-1.1-1.1-2.3-1.1-3.8V39h3.5v0.7
		c0,1.4,0.5,2.5,1.5,3.2c1,0.7,2.3,1.1,3.9,1.1c1.7,0,2.9-0.3,3.7-0.9c0.8-0.6,1.3-1.4,1.3-2.4c0-0.6-0.2-1.2-0.6-1.6
		c-0.4-0.4-1-0.7-1.7-1c-0.7-0.2-1.6-0.5-2.6-0.7l-1.2-0.3c-1.5-0.3-2.8-0.7-3.8-1.1c-1.1-0.5-1.9-1.1-2.5-1.8
		c-0.6-0.8-0.9-1.7-0.9-2.9c0-1.2,0.3-2.2,1-3.1c0.7-0.8,1.6-1.5,2.8-2c1.2-0.5,2.6-0.7,4.2-0.7c1.6,0,3,0.2,4.3,0.7
		c1.3,0.5,2.3,1.2,3,2.1c0.7,0.9,1.1,2.1,1.1,3.6v1h-3.5v-1c0-0.9-0.2-1.6-0.6-2.1c-0.4-0.5-1-0.9-1.7-1.2c-0.7-0.3-1.6-0.4-2.5-0.4
		c-1.4,0-2.5,0.3-3.3,0.8c-0.8,0.5-1.2,1.2-1.2,2.1c0,0.6,0.2,1.1,0.5,1.5c0.3,0.4,0.8,0.7,1.5,1s1.5,0.5,2.5,0.7l1.2,0.3
		c1.5,0.3,2.8,0.7,4,1.1c1.1,0.5,2,1.1,2.7,1.8c0.7,0.8,1,1.8,1,3c0,1.2-0.3,2.3-1,3.2c-0.7,0.9-1.7,1.6-3,2.1
		C108.7,46.5,107.2,46.8,105.5,46.8z"/>
	<path class="st0" d="M116.8,46.4v-4.1l12.2-13v-0.4h-11.8v-2.8h15.5v4.1l-12.2,13v0.4h12.3v2.8H116.8z"/>
	<path class="st0" d="M144.9,46.8c-2.8,0-5.1-0.7-6.7-2.1c-1.7-1.4-2.5-3.4-2.5-6.1v-4.7c0-2.6,0.8-4.7,2.5-6.1
		c1.7-1.4,3.9-2.1,6.7-2.1c2.8,0,4.9,0.7,6.4,2c1.5,1.4,2.3,3.2,2.3,5.5v0.2H150v-0.3c0-1.4-0.4-2.5-1.3-3.4
		c-0.8-0.9-2.1-1.3-3.9-1.3c-1.8,0-3.1,0.5-4.1,1.4c-1,0.9-1.5,2.2-1.5,3.9v4.9c0,1.6,0.5,2.9,1.5,3.9c1,0.9,2.4,1.4,4.1,1.4
		c1.7,0,3-0.4,3.9-1.3c0.8-0.9,1.3-2,1.3-3.3v-0.5h3.5v0.4c0,2.3-0.8,4.2-2.3,5.5C149.8,46.1,147.6,46.8,144.9,46.8z"/>
	<path class="st0" d="M156.5,46.4v-4.1l12.2-13v-0.4h-11.8v-2.8h15.5v4.1l-12.2,13v0.4h12.3v2.8H156.5z"/>
</g>
<g>
	<path class="st0" d="M2.7,3.5h4.2l5.9,13.6c0.5,1.1,0.5,2.6,0.5,3.7H15c0-1.1,0-2.7,0.5-3.7l5.9-13.6h4.2v20.3h-3V8.1h-1.9v2.5
		c0,1.2-0.2,2-0.6,3.1l-4.3,10.1h-3.1L8.2,13.7c-0.5-1.1-0.6-1.9-0.6-3.1V8.1H5.7v15.7c0,0-1.5,0-1.5,0c0,0-1.5,0-1.5,0
		C2.7,17,2.7,10.3,2.7,3.5z"/>
</g>
<g>
	<path class="st0" d="M12.6,26.1h3v15.7h1.9v-2.5c0-1.2,0.2-2,0.6-3.1l4.3-10.1h3.1l4.3,10.1c0.5,1.1,0.6,1.9,0.6,3.1v2.5h1.9V26.1
		h3v20.3h-4.2l-5.9-13.6c-0.5-1.1-0.5-2.6-0.5-3.7h-1.7c0,1.1,0,2.7-0.5,3.7l-5.9,13.6h-4.2V26.1z"/>
</g>
<rect x="90.7" y="3.6" class="st0" width="14.5" height="2.8"/>
<rect x="22.5" y="16.1" class="st0" width="3" height="10.8"/>
<rect x="12.6" y="23.7" class="st0" width="3" height="10.8"/>
<rect x="2.7" y="13.7" class="st0" width="3" height="32.7"/>
</svg>
